#N canvas 42 386 928 563 10;
#X obj 311 358 print;
#X obj 312 239 tof/to_ascii_code 13;
#X obj 312 314 tof/from_ascii_code 13;
#X msg 328 124 p m 13 1;
#X obj 441 84 tgl 15 0 empty empty empty 17 7 0 10 -262144 -1 -1 0
1;
#X msg 456 171 r a;
#X msg 420 135 w d 13 \$1;
#X msg 458 204 r d;
#X obj 312 277 comport 2 115200;
#X text 280 36 This example works with Messenger's basic_communication
example.;
#X connect 1 0 8 0;
#X connect 2 0 0 0;
#X connect 3 0 1 0;
#X connect 4 0 6 0;
#X connect 5 0 1 0;
#X connect 6 0 1 0;
#X connect 7 0 1 0;
#X connect 8 0 2 0;
